<svg width="320" height="321" viewBox="0 0 320 321" fill="none" xmlns="http://www.w3.org/2000/svg">
<path d="M172.048 194.276C171.63 189.285 171.475 184.276 171.584 179.268C171.584 178.852 170.976 178.74 170.928 179.268C170.405 184.287 170.459 189.35 171.088 194.356C171.099 194.484 171.16 194.602 171.257 194.684C171.355 194.767 171.481 194.807 171.608 194.796C171.736 194.786 171.853 194.725 171.936 194.627C172.019 194.53 172.059 194.404 172.048 194.276ZM164.8 192.404C164.829 192.469 164.876 192.524 164.936 192.563C164.996 192.602 165.065 192.622 165.136 192.622C165.207 192.622 165.277 192.602 165.337 192.563C165.396 192.524 165.443 192.469 165.472 192.404C165.248 187.364 165.04 182.308 164.816 177.252C164.816 177.167 164.783 177.086 164.723 177.026C164.663 176.966 164.581 176.932 164.496 176.932C164.411 176.932 164.33 176.966 164.27 177.026C164.21 177.086 164.176 177.167 164.176 177.252C163.963 181.07 164.006 184.897 164.304 188.708C164.315 189.956 164.481 191.198 164.8 192.404ZM206.736 193.044C206.893 195.516 206.617 197.996 205.92 200.372C205.92 200.74 206.992 202.772 207.664 196.932C208.086 192.988 207.263 189.01 205.312 185.556C205.104 185.172 204.56 185.556 204.736 185.892C205.844 188.131 206.522 190.556 206.736 193.044ZM187.344 77.3804C187.333 78.5844 187.74 79.755 188.496 80.6923C189.456 81.5564 190.944 78.1964 195.408 77.6684V73.3484C192.294 73.5763 189.395 75.0255 187.344 77.3804ZM229.408 192.948C229.408 189.652 229.12 186.372 229.056 183.076C229.056 182.628 228.368 182.724 228.368 183.172C228.368 186.58 228.368 190.02 228.512 193.444C228.576 195.7 229.456 194.868 229.408 192.948ZM198.4 73.2684L198.496 77.5884C204.016 77.7804 205.616 81.9404 206.208 80.6444C206.464 80.0524 207.504 77.0924 206.944 76.5803C204.595 74.4715 201.557 73.2936 198.4 73.2684ZM83.5683 47.3004C82.7363 47.7484 83.5683 49.7164 84.2243 49.2844C84.8803 48.8524 84.4803 46.7724 83.5683 47.3004ZM82.5123 42.4844C81.3923 42.5964 81.3603 43.7484 82.5123 43.8924C83.3468 43.9571 84.1561 44.2086 84.8803 44.6284C85.3123 44.9164 85.7763 44.3404 85.5203 43.9404C85.1907 43.4552 84.7392 43.0652 84.2112 42.8097C83.6833 42.5541 83.0974 42.4419 82.5123 42.4844ZM79.6483 48.1164C80.0765 49.2394 80.4136 50.3952 80.6563 51.5724C80.9283 52.9484 80.9123 53.3164 80.8483 53.3964C80.5899 53.4047 80.3328 53.4368 80.0803 53.4924C79.6163 53.6524 79.6163 54.2444 80.3363 54.5804C80.5316 54.679 80.7521 54.7166 80.969 54.688C81.1859 54.6595 81.3892 54.5662 81.5523 54.4204C82.3843 53.6204 82.0323 51.3644 80.5283 47.7164C80.4753 47.5997 80.378 47.5088 80.258 47.4638C80.138 47.4188 80.005 47.4233 79.8883 47.4764C79.7716 47.5294 79.6808 47.6266 79.6358 47.7466C79.5908 47.8667 79.5953 47.9997 79.6483 48.1164Z" fill="#27272A"/>
<path d="M311.552 240.852H288.848C290.944 229.652 278.496 221.764 270.752 225.892C269.957 222.011 267.772 218.555 264.608 216.171C261.443 213.788 257.518 212.642 253.568 212.948C253.147 210.199 252.107 207.581 250.527 205.292C248.948 203.003 246.869 201.102 244.448 199.732C243.696 190.772 244.032 181.652 244.048 172.804C245.408 172.9 248.672 173.204 248.144 171.908C246.544 167.94 243.808 161.316 241.744 157.508C242.576 157.508 243.52 157.508 243.52 156.66C243.776 141.3 244.272 109.076 244.272 109.076C244.528 90.0043 245.168 68.0843 231.776 52.3883C231.36 51.8923 230.784 51.7163 230.416 52.2283C224.968 59.9415 221.386 68.8146 219.952 78.1483C219.408 69.0283 218.688 58.7243 217.28 48.5323C214.88 31.2363 209.088 19.6203 199.68 12.7243C198.784 12.0683 197.472 11.0123 196.88 11.4283C182.192 21.8283 177.872 39.9723 176.848 53.3643C176.48 59.0603 176.368 64.8363 176.512 70.5643C174.544 63.2203 167.792 48.8843 165.312 52.3403C153.76 68.8843 154.736 90.2603 155.712 109.124C157.312 145.06 157.792 154.324 158 156.74C158 157.524 158 158.052 160.208 157.812C155.552 170.148 154.592 172.212 155.008 172.564C155.424 172.916 157.072 172.804 157.872 172.756C157.76 178.148 159.04 204.356 158.864 205.748C157.703 207.163 156.769 208.75 156.096 210.452C153.369 211.194 150.837 212.526 148.681 214.354C146.525 216.181 144.796 218.46 143.616 221.028C141.488 220.82 139.342 221.173 137.392 222.052C135.472 200.756 131.536 168.564 126.72 147.124C134.96 148.196 138.896 144.5 140.8 141.3C145.6 132.932 142.4 119.028 136.448 111.332C131.41 100.615 124.022 91.17 114.832 83.7003C115.808 81.8443 113.232 73.4123 106.688 69.9403C103.888 68.4523 100.16 68.3403 98.4482 66.7403C94.7842 63.1563 97.2482 53.6203 89.6162 51.1243C89.1226 47.1808 88.3038 43.2849 87.1682 39.4763C96.7682 35.3483 96.2722 24.1803 90.6082 21.0123C85.3282 18.0683 82.4162 22.2443 78.9442 23.4123C74.1442 25.0123 70.0642 21.5563 63.7602 21.5563C51.8722 21.5563 49.0562 33.5243 48.4322 34.1163C47.8082 34.7083 47.5682 38.0843 42.2722 40.1643C36.6402 42.3563 29.4722 42.4843 26.4162 49.1083C23.8242 54.9003 28.8002 61.9723 25.3762 67.3323C23.3762 70.5323 16.1922 70.7243 10.9762 79.0923C5.39222 88.0043 7.26422 100.1 14.9602 105.124C8.33622 120.004 8.64022 135.828 15.7442 146.484C22.2402 156.196 32.8322 159.844 44.3362 159.54C43.7602 186.644 44.0002 213.668 42.5602 240.948C37.3602 240.948 32.1442 241.06 27.0402 241.156C26.8959 241.156 26.7576 241.214 26.6556 241.316C26.5535 241.418 26.4962 241.556 26.4962 241.7C26.4962 241.845 26.5535 241.983 26.6556 242.085C26.7576 242.187 26.8959 242.244 27.0402 242.244C31.6002 242.34 36.9922 242.436 42.4642 242.436C41.5842 258.324 40.4002 274.436 38.9442 290.228C38.8002 291.828 42.5442 291.732 44.1282 291.828C43.6907 294.051 43.5242 296.318 43.6322 298.58C42.4162 299.652 40.6402 306.98 40.7362 308.34C40.7362 308.628 40.8642 308.804 41.0562 308.836C42.8162 309.124 69.4082 310.436 70.6402 308.98C70.671 308.924 70.6872 308.861 70.6872 308.796C70.6872 308.732 70.671 308.669 70.6402 308.612C68.8642 303.812 62.6402 299.764 57.5522 298.452L58.9282 292.324C59.9842 292.324 62.1282 292.484 62.4322 291.924C69.5842 275.796 76.0962 259.14 81.7762 242.452H105.04C109.472 256.678 113.384 271.061 116.768 285.572C118.128 291.428 117.184 291.108 120.96 291.284C120.942 293.566 121.217 295.84 121.776 298.052C120.549 300.94 119.808 304.011 119.584 307.14C119.553 307.194 119.537 307.255 119.537 307.316C119.537 307.378 119.553 307.439 119.584 307.492C120.592 308.772 149.312 309.844 151.28 308.676C152.88 307.652 144.112 299.156 136.336 297.588C136.448 295.545 136.4 293.496 136.192 291.46C137.552 291.46 140.688 291.828 140.688 290.484C140.688 275.38 140.176 259.204 139.088 242.484H311.6C311.817 242.478 312.022 242.386 312.17 242.228C312.319 242.071 312.399 241.861 312.392 241.644C312.386 241.428 312.294 241.223 312.136 241.074C311.979 240.926 311.769 240.846 311.552 240.852ZM94.8322 212.308C98.8162 223.268 100.944 230.084 104.544 240.996H82.2562C86.1442 229.492 91.5202 212.196 95.0562 197.652C96.2562 192.852 98.6722 194.884 97.7922 198.788C96.7682 203.604 94.7842 212.196 94.8322 212.308ZM135.2 297.748C132.464 298.996 125.6 298.916 122.928 298.148C122.752 295.86 122.288 293.572 122.256 291.284L134.832 291.428C134.944 293.54 135.072 295.636 135.2 297.748ZM45.6002 159.524C59.0402 158.852 75.0242 152.708 88.4002 143.06C88.6882 142.852 88.9442 142.804 89.0242 142.532C89.1042 142.26 89.0242 142.036 88.5442 141.348C92.3016 139.589 96.247 138.263 100.304 137.396C101.904 137.108 106.592 136.212 107.44 133.668L110.928 133.572C114.288 140.532 119.632 145.364 125.616 146.868L128.816 165.892C102.384 174.996 78.2562 176.932 45.6962 172.5C45.8082 168.196 45.8242 163.828 45.6482 159.524H45.6002ZM87.5362 62.0043C85.2962 67.8123 80.6242 68.0523 81.3762 69.4283V69.9243C81.6802 72.4683 82.2722 77.7003 78.1762 81.3963C71.2642 78.6443 66.9762 75.4763 63.7762 70.8683C64.4482 69.7003 63.7762 64.5963 63.7762 64.5483C62.7842 59.3323 58.2402 58.2763 59.2642 53.5563C59.4082 52.8683 59.6162 52.4683 59.8882 52.3403C60.7842 51.9403 63.0882 55.0283 63.5682 51.4443C64.3202 46.3243 65.7602 42.3723 70.8322 40.9323C75.5362 39.6043 80.0802 41.8763 86.1602 39.7803C87.5362 45.4763 89.9042 55.7803 87.5362 62.0043ZM78.4162 82.8043C81.1842 82.1163 83.5522 75.3163 82.9762 71.5083C87.2943 72.1183 91.547 73.1252 95.6802 74.5163C110.72 79.8763 123.776 91.3323 132.592 106.884C126.576 101.124 118.704 97.8763 111.584 98.3243C109.314 94.6041 106.706 91.1013 103.792 87.8603C103.749 87.8123 103.696 87.7739 103.636 87.7476C103.577 87.7213 103.513 87.7077 103.448 87.7077C103.383 87.7077 103.319 87.7213 103.26 87.7476C103.201 87.7739 103.148 87.8123 103.104 87.8603C103.058 87.9051 103.022 87.9585 102.997 88.0176C102.972 88.0767 102.959 88.1402 102.959 88.2043C102.959 88.2685 102.972 88.3319 102.997 88.391C103.022 88.4501 103.058 88.5036 103.104 88.5483C105.661 91.7271 108.017 95.0615 110.16 98.5323C108.04 98.8524 105.995 99.5573 104.128 100.612C103.826 100.642 103.526 100.696 103.232 100.772C102.354 100.971 101.46 101.094 100.56 101.14C96.8162 101.14 96.6722 99.5403 95.3282 99.7163C92.6562 99.9883 93.4402 105.268 99.5842 106.388C98.4802 109.476 97.9842 116.276 100.048 119.188C97.5842 119.188 96.0002 118.676 95.9042 121.188C95.8721 121.641 95.8721 122.096 95.9042 122.548C95.1109 122.038 94.2129 121.712 93.2768 121.596C92.3406 121.48 91.3903 121.576 90.4962 121.876C88.8162 122.516 85.6162 125.86 84.0002 127.252C84.0002 126.58 84.0002 125.556 83.4082 125.492C73.2482 124.644 57.8082 124.404 48.5602 124.66C48.0532 118.133 48.1389 111.573 48.8162 105.06C48.8438 104.927 48.8172 104.788 48.7421 104.673C48.6671 104.559 48.5499 104.48 48.4162 104.452C48.2826 104.425 48.1434 104.451 48.0294 104.526C47.9154 104.601 47.8358 104.719 47.8082 104.852C47.2962 107.732 46.3042 119.476 47.3442 124.708L34.2402 125.572C34.1435 125.581 34.0518 125.62 33.9772 125.682C33.9027 125.745 33.8489 125.828 33.8229 125.922C33.7969 126.015 33.7999 126.115 33.8316 126.207C33.8632 126.298 33.922 126.379 34.0002 126.436C34.0453 126.477 34.099 126.506 34.1572 126.523C34.2154 126.54 34.2766 126.543 34.3362 126.532C50.4902 125.543 66.6927 125.65 82.8322 126.852C82.9066 132.258 84.5339 137.529 87.5202 142.036C66.1762 157.412 31.0562 167.46 16.7202 145.668C6.40022 130.1 11.5202 102.9 30.6562 86.2923C39.7965 78.4556 50.9172 73.2855 62.8002 71.3483C65.6962 76.8683 76.3202 83.2843 78.4002 82.7723L78.4162 82.8043ZM102.128 102.196C101.313 103.057 100.628 104.033 100.096 105.092C97.1042 104.644 95.4082 103.076 95.1202 101.78C94.8962 100.884 95.4242 100.516 96.5282 101.268C98.2649 102.116 100.211 102.438 102.128 102.196ZM109.904 111.012C109.823 111.106 109.775 111.223 109.768 111.346C109.76 111.47 109.794 111.592 109.863 111.694C109.933 111.797 110.034 111.873 110.151 111.912C110.269 111.951 110.396 111.949 110.512 111.908C111.808 111.396 112.416 111.508 112.512 111.748C112.608 111.988 112.096 113.172 111.056 113.684C110.384 114.02 109.088 114.324 108.096 112.516C107.28 111.044 108.672 109.428 108.096 109.092C107.52 108.756 105.888 111.236 107.28 113.412C106.993 113.623 106.649 113.743 106.292 113.758C105.936 113.772 105.584 113.679 105.28 113.492C104.576 112.948 104.096 111.428 104.912 108.692C105.216 107.636 103.424 107.364 103.2 111.892C103.104 112.516 102.416 116.356 102.208 117.652C102 118.948 101.712 119.044 101.68 119.06C101.648 119.076 101.504 119.06 101.376 118.884C100.24 117.604 98.8802 111.092 101.056 106.084C101.733 104.395 102.888 102.941 104.381 101.901C105.873 100.86 107.638 100.279 109.456 100.228C110.526 100.208 111.584 100.446 112.542 100.923C113.5 101.4 114.328 102.101 114.957 102.966C115.585 103.832 115.995 104.837 116.152 105.895C116.308 106.953 116.207 108.034 115.856 109.044C115.684 109.582 115.391 110.074 115 110.481C114.609 110.889 114.13 111.202 113.6 111.396C113.418 111.084 113.164 110.819 112.86 110.623C112.555 110.427 112.209 110.305 111.849 110.268C111.49 110.23 111.126 110.278 110.788 110.408C110.45 110.537 110.147 110.744 109.904 111.012ZM98.1282 124.564C97.9322 124.013 97.5541 123.544 97.0562 123.236L97.2482 120.644H104.832C104.832 121.508 105.072 124.052 105.072 124.052C102.748 124.063 100.428 124.234 98.1282 124.564ZM103.088 119.204C103.511 117.456 103.815 115.681 104 113.892C104.52 114.459 105.227 114.819 105.991 114.907C106.755 114.995 107.525 114.806 108.16 114.372L108.416 114.548C107.732 117.672 107.645 120.897 108.16 124.052H106.56C106.604 122.538 106.437 121.025 106.064 119.556C105.6 119.14 103.792 119.204 103.088 119.204ZM90.7682 123.076C91.8406 122.808 92.9647 122.828 94.0268 123.135C95.0889 123.441 96.0512 124.022 96.8162 124.82C97.1042 125.3 97.0562 125.46 97.0402 125.508C97.0242 125.556 96.0802 125.684 95.4402 125.652C94.4947 125.5 93.5251 125.633 92.6562 126.036C91.3371 127.095 90.4727 128.617 90.2402 130.292C90.0002 134.372 101.792 133.86 105.824 133.732C102.848 136.772 93.9842 136.084 87.9842 140.276C85.8875 136.66 84.5534 132.652 84.0642 128.5C85.1202 128.02 89.0722 123.812 90.7682 123.076ZM140.8 138.292C137.344 148.388 126.512 145.796 126.064 145.684C118.512 143.78 114.144 136.74 112.496 133.476C114.288 133.06 113.776 131.3 113.6 129.604L127.552 129.284C128.672 131.412 131.328 130.708 131.2 128.58C131.217 128.117 131.07 127.663 130.787 127.297C130.504 126.93 130.101 126.674 129.649 126.573C129.196 126.473 128.723 126.533 128.311 126.745C127.899 126.957 127.574 127.306 127.392 127.732C125.392 127.556 115.552 127.828 113.488 128.052C113.248 123.764 113.488 124.068 109.536 124.084C109.168 121.077 109.168 118.036 109.536 115.028C110.374 115.185 111.241 115.041 111.984 114.623C112.727 114.204 113.299 113.538 113.6 112.74C116.256 112.404 118.928 107.796 116.576 102.868C116.136 102.041 115.529 101.314 114.794 100.733C114.059 100.152 113.211 99.7295 112.304 99.4923C124.512 99.1723 135.568 109.012 139.984 120.724C140.208 120.724 140.352 120.564 139.984 120.724C142.257 126.315 142.545 132.515 140.8 138.292ZM57.6002 292.292C57.0914 294.308 56.7173 296.355 56.4802 298.42C52.5885 298.823 48.6678 298.866 44.7682 298.548C45.0242 296.324 45.2642 294.116 45.5042 291.892L57.6002 292.292ZM270.88 226.836C274.368 223.972 289.792 227.62 287.488 240.9H138.992L137.6 223.172C145.712 220.356 151.664 224.644 153.76 229.86C154.128 230.836 156.192 230.004 152.976 225.988C150.933 223.463 148.047 221.758 144.848 221.188C152.592 206.276 174.512 208.66 178.768 224.692C178.992 225.54 180.256 225.124 180.032 224.276C178.748 219.548 175.73 215.478 171.578 212.877C167.426 210.277 162.446 209.336 157.632 210.244C158.989 207.517 160.996 205.166 163.477 203.399C165.958 201.631 168.837 200.503 171.857 200.112C174.878 199.721 177.949 200.081 180.798 201.159C183.647 202.237 186.186 204 188.192 206.292C189.664 207.892 194.592 217.268 196.192 218.372C194.877 220.628 194.053 223.136 193.776 225.732C191.798 226.457 190 227.6 188.503 229.082C187.007 230.565 185.847 232.353 185.104 234.324C185.051 234.445 185.048 234.582 185.096 234.705C185.144 234.828 185.239 234.927 185.36 234.98C185.481 235.033 185.618 235.036 185.741 234.988C185.864 234.94 185.963 234.845 186.016 234.724C186.984 232.482 188.52 230.531 190.472 229.063C192.424 227.595 194.726 226.662 197.149 226.355C199.572 226.048 202.033 226.378 204.289 227.313C206.546 228.247 208.52 229.754 210.016 231.684C210.122 231.833 210.283 231.933 210.463 231.963C210.643 231.993 210.828 231.95 210.976 231.844C211.125 231.738 211.225 231.578 211.255 231.397C211.285 231.217 211.242 231.033 211.136 230.884C209.293 228.444 206.76 226.612 203.865 225.625C200.971 224.638 197.846 224.542 194.896 225.348C195.366 222.801 196.347 220.375 197.78 218.216C199.213 216.057 201.067 214.211 203.232 212.788C205.85 211.11 208.851 210.125 211.954 209.924C215.057 209.724 218.16 210.315 220.972 211.643C223.784 212.97 226.212 214.99 228.029 217.514C229.846 220.037 230.993 222.981 231.36 226.068C231.395 226.228 231.486 226.369 231.618 226.466C231.749 226.563 231.911 226.609 232.073 226.595C232.236 226.582 232.388 226.509 232.501 226.392C232.614 226.274 232.681 226.119 232.688 225.956C232.264 222.434 230.902 219.091 228.743 216.276C226.584 213.462 223.708 211.279 220.416 209.956C221.484 207.139 223.257 204.643 225.565 202.707C227.873 200.772 230.64 199.461 233.6 198.9C242.944 197.46 250.96 204.644 252.144 213.108C249.696 213.514 247.372 214.468 245.346 215.901C243.32 217.334 241.646 219.207 240.448 221.38C240.16 221.924 241.04 222.404 241.344 221.876C243.091 218.924 245.76 216.626 248.939 215.337C252.119 214.048 255.634 213.838 258.944 214.74C262.129 215.755 264.9 217.772 266.844 220.492C268.788 223.211 269.8 226.486 269.728 229.828C269.728 230.26 270.304 230.804 270.736 230.5C270.912 230.388 271.424 230.02 270.896 226.836H270.88ZM178.32 54.2283C189.296 52.3083 200.72 51.9723 216.48 53.1403C219.008 74.8843 219.376 95.3643 219.776 117.236C216.704 110.452 213.584 100.548 213.632 93.7163C213.617 85.7687 211.685 77.942 208 70.9003C203.616 62.5323 197.68 56.6123 191.216 63.5563C182.256 73.1563 182.896 84.7403 183.072 97.5883C182.479 103.302 181.25 108.931 179.408 114.372C178.848 87.7003 177.296 68.0523 178.32 54.2283ZM242.448 156.212C241.271 156.028 240.073 156.028 238.896 156.212L239.056 143.604C239.103 143.319 239.084 143.026 239.001 142.749C238.918 142.472 238.773 142.217 238.576 142.004C234.912 138.932 224.656 129.044 221.264 120.228C221.264 110.948 221.12 101.54 220.752 92.2603C228.864 92.0203 236.448 92.1163 242.832 92.2603C243.472 107.86 242.272 135.124 242.448 156.212ZM178.544 199.012C175.305 198.292 171.936 198.402 168.751 199.33C165.565 200.259 162.665 201.977 160.32 204.324C160.208 200.884 159.504 179.508 159.264 172.788L177.44 172.436C177.392 175.684 178.24 195.876 178.544 199.012ZM213.968 104.756C216.896 116.868 222.144 129.812 237.664 142.98C237.664 147.3 237.168 158.228 237.456 162.388C237.136 162.388 213.584 162.548 211.856 162.692C213.646 143.435 214.351 124.093 213.968 104.756ZM183.424 104.996C184.496 124.596 186.464 144.1 189.296 163.044C185.376 162.948 166.992 162.388 164.32 162.516C164.32 159.892 163.664 144.788 163.6 143.316C173.791 132.74 180.68 119.424 183.424 104.996ZM178.624 172.404C179.776 172.404 182.32 172.676 182.176 171.54C181.457 169.039 180.476 166.62 179.248 164.324L189.456 164.468C189.696 165.94 189.92 167.412 190.144 168.884C188.64 170.484 185.6 179.764 185.184 181.444C185.152 181.556 185.147 181.674 185.169 181.788C185.192 181.902 185.241 182.009 185.312 182.1C185.696 182.58 186.704 182.644 187.776 182.644C183.12 190.02 185.648 199.14 187.424 203.636C185.21 201.695 182.616 200.235 179.808 199.348C180.176 196.42 178.832 175.092 178.64 172.404H178.624ZM186.816 189.748C187.155 187.279 187.958 184.895 189.184 182.724C196.565 183.02 203.956 182.94 211.328 182.484C212.208 185.956 220.224 195.06 210.272 208.74C207.571 209.106 204.978 210.036 202.66 211.47C200.341 212.903 198.351 214.808 196.816 217.06C191.152 208.5 185.376 200.052 186.832 189.748H186.816ZM212.56 122.196C212.32 138.324 211.328 152.452 210.144 167.908L191.312 168.404C187.76 143.812 186.24 126.212 184.912 106.004C184.544 100.276 184.176 94.3403 184.304 88.5323C184.512 78.5643 186.544 71.4603 190.704 66.1323C196.592 58.6283 201.36 61.9723 206.032 70.2763C208.715 75.0698 210.56 80.286 211.488 85.7003C212.928 93.8603 212.64 117.54 212.576 122.196H212.56ZM219.28 209.54C216.978 208.795 214.561 208.47 212.144 208.58C214.836 204.777 216.336 200.258 216.453 195.6C216.57 190.942 215.298 186.354 212.8 182.42C213.84 182.42 216.608 182.42 216.288 181.444C215.744 179.62 214.208 175.828 212.976 172.772C212.176 170.756 211.376 169.012 211.376 168.548C211.472 167.7 211.856 163.924 211.856 163.924C213.344 164.164 220.464 163.924 222.88 163.924C220.848 170.324 221.12 169.524 220.688 170.628C220.368 171.476 220.208 171.892 220.416 172.228C220.624 172.564 221.472 172.548 223.616 172.596C223.616 181.828 224.4 192.5 224.8 201.7C222.208 203.69 220.287 206.426 219.296 209.54H219.28ZM224.64 172.58L242.864 172.756C242.284 181.468 242.316 190.209 242.96 198.916C240.214 197.712 237.202 197.239 234.218 197.545C231.235 197.851 228.381 198.924 225.936 200.66C225.6 191.3 225.344 181.684 224.656 172.58H224.64ZM178.4 53.0283C179.504 40.0843 183.76 22.7563 197.6 12.8043C210.912 21.9403 214.544 37.5403 216.304 51.6683C204.96 50.8363 188.992 50.9483 178.416 53.0283H178.4ZM156.8 94.3563C160.528 94.3563 174.4 94.1643 177.6 94.1483C177.888 101.828 178.182 109.519 178.48 117.22C175.52 124.9 168.88 136.708 162.656 142.5C162.336 144.1 162.752 154.404 162.832 156.26C161.664 156.372 160.496 156.484 159.408 156.644C158.768 135.108 156.8 107.284 156.8 94.3563Z" fill="#27272A"/>
<path d="M79.3443 58.1802C75.0083 57.8442 73.9043 54.6922 72.9443 54.9802C72.6883 54.9802 72.5763 55.3162 72.5123 55.4922C71.1523 58.4522 72.8803 62.1322 75.9043 62.1322C76.8345 62.0325 77.7202 61.6822 78.4669 61.1187C79.2136 60.5551 79.7934 59.7994 80.1443 58.9322C80.1972 58.8219 80.2136 58.6977 80.1911 58.5775C80.1686 58.4573 80.1085 58.3473 80.0194 58.2636C79.9303 58.1798 79.8168 58.1266 79.6955 58.1116C79.5741 58.0966 79.4511 58.1206 79.3443 58.1802ZM78.5763 59.2842C76.4163 62.1642 72.9923 60.8842 73.3283 56.9322C73.992 57.6669 74.8014 58.2554 75.7049 58.6603C76.6084 59.0652 77.5862 59.2777 78.5763 59.2842ZM200 128.132C199.975 127.962 199.889 127.806 199.758 127.694C199.627 127.581 199.461 127.519 199.288 127.519C199.116 127.519 198.949 127.581 198.819 127.694C198.688 127.806 198.602 127.962 198.576 128.132C198.576 130.548 199.376 160.356 199.824 163.588C199.824 163.741 199.885 163.887 199.993 163.996C200.101 164.104 200.248 164.164 200.4 164.164C200.553 164.164 200.7 164.104 200.808 163.996C200.916 163.887 200.976 163.741 200.976 163.588C201.696 153.412 200.336 138.676 200 128.132ZM73.6003 50.6442C74.1123 50.6442 74.2723 50.1002 74.1603 49.5402C73.9363 48.4202 73.0403 48.3562 72.8163 48.9962C72.5923 49.6362 72.9123 50.6442 73.6003 50.6442ZM71.9043 43.8762C71.1839 44.0194 70.5347 44.406 70.0657 44.9712C69.5966 45.5364 69.3363 46.2458 69.3283 46.9802C69.4563 47.8122 70.1443 47.8122 70.2563 47.2042C70.5923 45.4922 71.3123 45.6042 72.2083 45.0602C72.3374 44.9972 72.4408 44.8915 72.501 44.7611C72.5613 44.6307 72.5747 44.4835 72.5389 44.3443C72.5032 44.2052 72.4205 44.0826 72.3049 43.9973C72.1893 43.912 72.0478 43.8693 71.9043 43.8762ZM235.328 194.276C235.328 194.58 235.92 194.484 235.984 194.18C236.24 193.092 235.056 180.692 235.248 177.332C235.248 176.9 234.608 176.916 234.576 177.332C234.281 182.991 234.533 188.666 235.328 194.276ZM198.528 207.284C198.848 207.524 199.344 207.14 199.136 206.788C198.528 205.716 197.664 204.884 196.752 203.236C195.352 200.625 194.545 197.737 194.387 194.778C194.23 191.819 194.726 188.862 195.84 186.116C196.016 185.716 195.376 185.476 195.184 185.892C193.824 189.014 193.271 192.428 193.576 195.819C193.881 199.211 195.033 202.471 196.928 205.3C197.356 206.04 197.896 206.709 198.528 207.284Z" fill="#27272A"/>
</svg>
