<svg width="116" height="37" viewBox="0 0 116 37" fill="none" xmlns="http://www.w3.org/2000/svg">
<path d="M18.5204 0.5C17.1168 0.5 15.7507 0.660642 14.4401 0.965194C7.77547 2.50937 2.52982 7.75502 0.985641 14.419C0.681089 15.7303 0.520447 17.0964 0.520447 18.5C0.520447 28.4411 8.57935 36.5 18.5204 36.5C19.9241 36.5 21.2902 36.3394 22.6014 36.0348C29.2654 34.4906 34.5111 29.2456 36.0559 22.5823C36.3605 21.2711 36.5211 19.9043 36.5211 18.5C36.5211 8.5589 28.4615 0.5 18.5204 0.5ZM18.5204 29.7724C17.1918 29.7724 15.9174 29.5428 14.734 29.1205C11.5546 27.9866 9.0345 25.4665 7.90063 22.2871C7.47828 21.1037 7.24869 19.8286 7.24869 18.5C7.24869 12.2744 12.2949 7.22758 18.5204 7.22758C19.8491 7.22758 21.1235 7.45716 22.3069 7.87952C25.4863 9.01339 28.0071 11.5335 29.1409 14.7129C29.5633 15.8963 29.7929 17.1714 29.7929 18.5C29.7929 24.7256 24.746 29.7724 18.5204 29.7724Z" fill="url(#paint0_linear_84_244)"/>
<path d="M18.5204 11.2349C14.5084 11.2349 11.2554 14.4879 11.2554 18.4999C11.2554 22.512 14.5084 25.765 18.5204 25.765C22.5325 25.765 25.7855 22.512 25.7855 18.4999C25.7855 14.4879 22.5331 11.2349 18.5204 11.2349ZM18.5204 22.8928C16.0947 22.8928 14.1275 20.9263 14.1275 18.4999C14.1275 16.0736 16.0947 14.107 18.5204 14.107C20.9461 14.107 22.9133 16.0736 22.9133 18.4999C22.9133 20.9263 20.9468 22.8928 18.5204 22.8928Z" fill="#FEFCFE"/>
<path d="M22.3069 7.87966C21.1235 7.4573 19.8491 7.22772 18.5204 7.22772C12.2949 7.22772 7.24868 12.2746 7.24868 18.5001C7.24868 19.8288 7.47826 21.1039 7.90062 22.2873C6.4622 21.7438 5.11347 20.893 3.95551 19.7351C2.43609 18.2157 1.44613 16.3676 0.985626 14.4191C2.5298 7.75516 7.77545 2.50951 14.4401 0.965332C16.3879 1.42584 18.236 2.4158 19.7554 3.93521C20.9127 5.09251 21.7634 6.44124 22.3069 7.87966Z" fill="url(#paint1_linear_84_244)"/>
<path d="M36.0559 22.5824C34.5111 29.2457 29.2654 34.4907 22.6014 36.0348C20.6536 35.5743 18.8056 34.5844 17.2862 33.065C16.1282 31.907 15.2775 30.5583 14.7339 29.1205C15.9173 29.5429 17.1918 29.7725 18.5204 29.7725C24.746 29.7725 29.7928 24.7256 29.7928 18.5C29.7928 17.1714 29.5633 15.8963 29.1409 14.7129C30.5787 15.2564 31.9274 16.1071 33.0854 17.2651C34.6048 18.7845 35.5954 20.6339 36.0559 22.5824Z" fill="url(#paint2_linear_84_244)"/>
<path d="M9.61683 31.1713C11.6973 31.1713 13.3839 29.4848 13.3839 27.4043C13.3839 25.3238 11.6973 23.6372 9.61683 23.6372C7.53634 23.6372 5.84976 25.3238 5.84976 27.4043C5.84976 29.4848 7.53634 31.1713 9.61683 31.1713Z" fill="url(#paint3_linear_84_244)"/>
<path d="M27.4575 13.3305C29.538 13.3305 31.2246 11.6439 31.2246 9.56346C31.2246 7.48296 29.538 5.79639 27.4575 5.79639C25.377 5.79639 23.6904 7.48296 23.6904 9.56346C23.6904 11.6439 25.377 13.3305 27.4575 13.3305Z" fill="url(#paint4_linear_84_244)"/>
<path d="M115.281 15.1088V17.0974H109.009V15.1088H115.281ZM110.558 12.4951H113.129V22.7366C113.129 23.0822 113.181 23.3474 113.285 23.532C113.394 23.712 113.536 23.8351 113.711 23.9014C113.886 23.9677 114.08 24.0008 114.293 24.0008C114.454 24.0008 114.601 23.989 114.734 23.9653C114.871 23.9416 114.975 23.9203 115.046 23.9014L115.48 25.9113C115.342 25.9587 115.146 26.0107 114.89 26.0676C114.639 26.1244 114.331 26.1575 113.967 26.167C113.323 26.1859 112.743 26.0889 112.227 25.8758C111.711 25.658 111.301 25.3218 110.998 24.8673C110.7 24.4127 110.553 23.8445 110.558 23.1627V12.4951Z" fill="#D4D4D8"/>
<path d="M104.618 26.0176V15.1085H107.189V26.0176H104.618ZM105.911 13.5602C105.504 13.5602 105.153 13.4253 104.86 13.1554C104.566 12.8808 104.42 12.5517 104.42 12.1682C104.42 11.7799 104.566 11.4509 104.86 11.181C105.153 10.9064 105.504 10.769 105.911 10.769C106.323 10.769 106.673 10.9064 106.962 11.181C107.256 11.4509 107.403 11.7799 107.403 12.1682C107.403 12.5517 107.256 12.8808 106.962 13.1554C106.673 13.4253 106.323 13.5602 105.911 13.5602Z" fill="#D4D4D8"/>
<path d="M92.1344 26.0176V11.4722H94.7054V16.9125H94.812C94.9445 16.6474 95.1316 16.3656 95.373 16.0673C95.6145 15.7643 95.9412 15.5063 96.3531 15.2932C96.7651 15.0754 97.2907 14.9665 97.9299 14.9665C98.7727 14.9665 99.5326 15.1819 100.21 15.6128C100.892 16.0389 101.431 16.671 101.829 17.5091C102.231 18.3424 102.433 19.3652 102.433 20.5773C102.433 21.7752 102.236 22.7932 101.843 23.6313C101.45 24.4693 100.915 25.1085 100.238 25.5489C99.561 25.9892 98.794 26.2094 97.937 26.2094C97.312 26.2094 96.7935 26.1052 96.3816 25.8969C95.9696 25.6886 95.6382 25.4376 95.3872 25.144C95.141 24.8457 94.9493 24.564 94.812 24.2989H94.6628V26.0176H92.1344ZM94.6557 20.5631C94.6557 21.2686 94.7551 21.8865 94.954 22.4168C95.1576 22.9471 95.4488 23.3614 95.8276 23.6597C96.2111 23.9532 96.6751 24.1 97.2196 24.1C97.7878 24.1 98.2637 23.9485 98.6472 23.6455C99.0307 23.3377 99.3195 22.9187 99.5137 22.3884C99.7125 21.8533 99.812 21.2449 99.812 20.5631C99.812 19.886 99.7149 19.2847 99.5208 18.7591C99.3266 18.2335 99.0378 17.8216 98.6543 17.5233C98.2708 17.225 97.7925 17.0759 97.2196 17.0759C96.6704 17.0759 96.204 17.2203 95.8205 17.5091C95.437 17.7979 95.1458 18.2028 94.9469 18.7236C94.7528 19.2444 94.6557 19.8576 94.6557 20.5631Z" fill="#D4D4D8"/>
<path d="M84.0911 26.0175V15.1084H86.584V16.9266H86.6976C86.8965 16.2968 87.2374 15.8115 87.7203 15.4706C88.208 15.125 88.7644 14.9521 89.3894 14.9521C89.5314 14.9521 89.69 14.9593 89.8652 14.9735C90.0451 14.9829 90.1943 14.9995 90.3127 15.0232V17.3882C90.2038 17.3503 90.0309 17.3172 89.7942 17.2888C89.5622 17.2557 89.3373 17.2391 89.1195 17.2391C88.6507 17.2391 88.2293 17.3409 87.8553 17.5445C87.486 17.7433 87.1948 18.0203 86.9817 18.3754C86.7686 18.7306 86.6621 19.1401 86.6621 19.6041V26.0175H84.0911Z" fill="#D4D4D8"/>
<path d="M76.6816 26.2305C75.6163 26.2305 74.693 25.9961 73.9117 25.5274C73.1305 25.0586 72.5244 24.4029 72.0936 23.5601C71.6674 22.7173 71.4543 21.7324 71.4543 20.6055C71.4543 19.4786 71.6674 18.4914 72.0936 17.6439C72.5244 16.7963 73.1305 16.1382 73.9117 15.6694C74.693 15.2007 75.6163 14.9663 76.6816 14.9663C77.747 14.9663 78.6703 15.2007 79.4515 15.6694C80.2328 16.1382 80.8364 16.7963 81.2626 17.6439C81.6935 18.4914 81.9089 19.4786 81.9089 20.6055C81.9089 21.7324 81.6935 22.7173 81.2626 23.5601C80.8364 24.4029 80.2328 25.0586 79.4515 25.5274C78.6703 25.9961 77.747 26.2305 76.6816 26.2305ZM76.6958 24.1709C77.2735 24.1709 77.7564 24.0122 78.1447 23.695C78.5329 23.373 78.8218 22.9422 79.0112 22.4024C79.2053 21.8626 79.3024 21.2613 79.3024 20.5984C79.3024 19.9308 79.2053 19.3271 79.0112 18.7873C78.8218 18.2428 78.5329 17.8096 78.1447 17.4876C77.7564 17.1656 77.2735 17.0047 76.6958 17.0047C76.104 17.0047 75.6115 17.1656 75.2186 17.4876C74.8303 17.8096 74.5391 18.2428 74.345 18.7873C74.1556 19.3271 74.0609 19.9308 74.0609 20.5984C74.0609 21.2613 74.1556 21.8626 74.345 22.4024C74.5391 22.9422 74.8303 23.373 75.2186 23.695C75.6115 24.0122 76.104 24.1709 76.6958 24.1709Z" fill="#D4D4D8"/>
<path d="M67.7061 26.1738C67.2753 26.1738 66.9059 26.0223 66.5982 25.7192C66.2904 25.4162 66.1389 25.0469 66.1436 24.6113C66.1389 24.1851 66.2904 23.8206 66.5982 23.5175C66.9059 23.2145 67.2753 23.063 67.7061 23.063C68.1228 23.063 68.485 23.2145 68.7928 23.5175C69.1053 23.8206 69.2639 24.1851 69.2686 24.6113C69.2639 24.9001 69.1881 25.1629 69.0414 25.3996C68.8993 25.6364 68.7099 25.8258 68.4732 25.9678C68.2412 26.1051 67.9855 26.1738 67.7061 26.1738Z" fill="#D4D4D8"/>
<path d="M56.5058 19.6254V26.0174H53.9348V15.1084H56.3922V16.962H56.52C56.771 16.3513 57.1711 15.8659 57.7203 15.5061C58.2743 15.1462 58.9585 14.9663 59.7729 14.9663C60.5257 14.9663 61.1815 15.1273 61.7402 15.4493C62.3037 15.7712 62.7393 16.2376 63.047 16.8484C63.3595 17.4592 63.5134 18.2002 63.5087 19.0714V26.0174H60.9377V19.4691C60.9377 18.74 60.7483 18.1694 60.3695 17.7575C59.9954 17.3456 59.477 17.1396 58.8141 17.1396C58.3643 17.1396 57.9642 17.239 57.6138 17.4379C57.2681 17.632 56.9959 17.9138 56.797 18.2831C56.6029 18.6524 56.5058 19.0998 56.5058 19.6254Z" fill="#D4D4D8"/>
<path d="M48.72 26.0176V15.1085H51.291V26.0176H48.72ZM50.0126 13.5602C49.6054 13.5602 49.255 13.4253 48.9615 13.1554C48.6679 12.8808 48.5211 12.5517 48.5211 12.1682C48.5211 11.7799 48.6679 11.4509 48.9615 11.181C49.255 10.9064 49.6054 10.769 50.0126 10.769C50.4245 10.769 50.7749 10.9064 51.0637 11.181C51.3573 11.4509 51.5041 11.7799 51.5041 12.1682C51.5041 12.5517 51.3573 12.8808 51.0637 13.1554C50.7749 13.4253 50.4245 13.5602 50.0126 13.5602Z" fill="#D4D4D8"/>
<defs>
<linearGradient id="paint0_linear_84_244" x1="31.076" y1="6.63588" x2="6.35579" y2="29.9953" gradientUnits="userSpaceOnUse">
<stop stop-color="#F38856"/>
<stop offset="0.23" stop-color="#F0625C"/>
<stop offset="1" stop-color="#5C3DAB"/>
</linearGradient>
<linearGradient id="paint1_linear_84_244" x1="17.3812" y1="3.55168" x2="3.3203" y2="17.537" gradientUnits="userSpaceOnUse">
<stop stop-color="#F67986"/>
<stop offset="1" stop-color="#8951BA"/>
</linearGradient>
<linearGradient id="paint2_linear_84_244" x1="33.4629" y1="19.7196" x2="19.402" y2="33.7055" gradientUnits="userSpaceOnUse">
<stop stop-color="#F67986"/>
<stop offset="1" stop-color="#8951BA"/>
</linearGradient>
<linearGradient id="paint3_linear_84_244" x1="12.3672" y1="24.8306" x2="6.86583" y2="29.9779" gradientUnits="userSpaceOnUse">
<stop stop-color="#A267B9"/>
<stop offset="1" stop-color="#704BB4"/>
</linearGradient>
<linearGradient id="paint4_linear_84_244" x1="29.7473" y1="7.42022" x2="25.9916" y2="10.9349" gradientUnits="userSpaceOnUse">
<stop stop-color="#F7A8A5"/>
<stop offset="0.97" stop-color="#D074C4"/>
<stop offset="1" stop-color="#CF76A9"/>
</linearGradient>
</defs>
</svg>
